<svg xmlns="http://www.w3.org/2000/svg" width="857.817" height="137.248" viewBox="1220.273 992.802 857.817 137.248"><g fill="#FFF"><path d="M1291.109 1096.085c-3.536 1.769-11.49 3.662-21.845 3.662-29.42 0-44.572-18.309-44.572-42.552 0-29.041 20.708-45.203 46.467-45.203 9.975 0 17.551 2.02 20.96 3.788l-3.914 15.277c-3.914-1.641-9.344-3.156-16.162-3.156-15.278 0-27.147 9.218-27.147 28.157 0 17.046 10.102 27.779 27.273 27.779 5.809 0 12.248-1.263 16.036-2.778l2.904 15.026zM1321.913 1029.543h-22.854v-16.162h65.406v16.162h-23.232v68.941h-19.319v-68.941zM1374.689 1013.381h19.318v68.941h33.84v16.162h-53.158v-85.103zM1474.183 1098.484l-1.137-6.188h-.379c-4.04 4.925-10.354 7.576-17.677 7.576-12.501 0-19.95-9.091-19.95-18.939 0-16.036 14.394-23.738 36.238-23.612v-.884c0-3.283-1.768-7.955-11.238-7.955-6.313 0-13.005 2.146-17.046 4.672l-3.535-12.374c4.293-2.398 12.753-5.429 23.99-5.429 20.582 0 27.147 12.121 27.147 26.642v21.466c0 5.935.253 11.616.884 15.025h-17.297zm-2.274-29.168c-10.101-.126-17.93 2.273-17.93 9.723 0 4.925 3.283 7.324 7.576 7.324 4.798 0 8.712-3.157 9.975-7.071.253-1.011.379-2.146.379-3.283v-6.693zM1517.49 1036.74l4.925 25.253c1.263 6.439 2.525 13.258 3.535 20.329h.253c1.263-7.071 3.03-14.142 4.545-20.203l6.566-25.379h15.152l6.187 24.622c1.642 6.944 3.283 13.889 4.546 20.96h.252c.884-7.071 2.146-14.016 3.536-21.087l5.303-24.495h18.813l-18.939 61.744h-18.057l-5.808-21.718c-1.516-6.061-2.652-11.616-3.914-19.192h-.253c-1.137 7.702-2.399 13.384-4.041 19.192l-6.187 21.718h-18.057l-17.93-61.744h19.573zM1620.015 1013.381v32.703h31.693v-32.703h19.192v85.104h-19.192v-35.607h-31.693v35.607h-19.318v-85.104h19.318zM1701.455 1073.736c.631 7.955 8.46 11.742 17.425 11.742 6.565 0 11.869-.884 17.046-2.525l2.525 13.006c-6.313 2.525-14.016 3.788-22.35 3.788-20.96 0-32.955-12.122-32.955-31.44 0-15.657 9.723-32.955 31.188-32.955 19.95 0 27.526 15.53 27.526 30.809 0 3.283-.379 6.188-.632 7.576h-39.773zm22.602-13.132c0-4.672-2.021-12.5-10.859-12.5-8.081 0-11.363 7.323-11.868 12.5h22.727zM1753.348 1008.835h19.192v89.649h-19.192v-89.649zM1788.069 1057.448c0-8.081-.252-15.026-.505-20.708h16.667l.884 8.586h.253c4.545-6.565 11.616-9.975 20.581-9.975 13.511 0 25.632 11.742 25.632 31.439 0 22.476-14.268 33.082-28.03 33.082-7.45 0-13.259-3.03-16.036-7.07h-.253v30.683h-19.192v-66.037zm19.193 14.521c0 1.515.127 2.903.379 4.04 1.263 5.177 5.682 9.092 11.238 9.092 8.333 0 13.258-6.945 13.258-17.425 0-9.85-4.42-17.299-13.006-17.299-5.43 0-10.228 4.04-11.49 9.723-.252 1.01-.379 2.272-.379 3.409v8.46zM1857.893 1088.257c0-6.818 4.672-11.743 11.364-11.743 6.691 0 11.237 4.799 11.237 11.743 0 6.692-4.546 11.616-11.364 11.616-6.566 0-11.237-4.924-11.237-11.616zM1953.096 1066.918c0 22.602-16.036 32.955-32.577 32.955-18.057 0-31.945-11.869-31.945-31.819 0-19.949 13.132-32.702 32.955-32.702 18.94 0 31.567 13.004 31.567 31.566zm-44.7.631c0 10.606 4.42 18.562 12.627 18.562 7.45 0 12.248-7.45 12.248-18.562 0-9.217-3.535-18.561-12.248-18.561-9.217 0-12.627 9.47-12.627 18.561zM1964.962 1057.069c0-9.092-.252-15.026-.505-20.329h16.541l.631 11.364h.505c3.157-8.966 10.733-12.753 16.668-12.753 1.768 0 2.651 0 4.04.252v18.057c-1.389-.253-3.03-.506-5.177-.506-7.071 0-11.869 3.788-13.132 9.723-.252 1.263-.379 2.778-.379 4.293v31.314h-19.192v-41.415zM2070.897 1036.74c-.253 3.914-.505 9.091-.505 18.309v34.471c0 11.869-2.399 21.592-9.344 27.778-6.818 5.809-16.036 7.576-25.127 7.576-8.081 0-16.668-1.642-22.224-4.798l3.788-14.521c3.914 2.272 10.732 4.672 17.93 4.672 9.092 0 16.036-4.925 16.036-16.289v-4.04h-.253c-3.661 5.177-9.596 8.081-16.667 8.081-15.278 0-26.137-12.374-26.137-30.178 0-19.824 12.879-32.45 28.031-32.45 8.46 0 13.763 3.661 16.919 8.712h.253l.632-7.323h16.668zm-19.698 25.127c0-1.263-.126-2.525-.378-3.535-1.39-5.051-5.051-8.46-10.354-8.46-6.944 0-12.626 6.313-12.626 17.551 0 9.218 4.545 16.415 12.626 16.415 4.925 0 8.839-3.283 10.102-7.829.505-1.389.631-3.409.631-5.051v-9.091z"/></g></svg>
