<svg xmlns="http://www.w3.org/2000/svg" viewBox="0 0 792 612" fill="#fff"><path d="M558.736 29.612c-.799-4.669-4.002-8.537-8.402-10.138C523.521 9.736 488.172-.001 450.289-.001c-29.746 0-61.359 6.003-90.572 23.21-14.806 8.537-26.412 19.475-35.216 31.614-13.338 18.409-20.409 39.485-24.41 60.827-3.202 17.34-4.402 34.948-5.069 52.156-7.603.133-16.273.267-24.144.267-6.936 0-13.206 0-17.741-.133h-7.47a13.564 13.564 0 0 0-9.337 3.735c-2.402 2.401-3.868 5.87-3.868 9.338l.534 86.171c0 7.203 5.869 13.472 13.072 13.472h9.071c12.671 0 36.417-.534 54.557-.133 2.668 59.225 3.335 147.931 3.335 216.761 0 29.079-.133 54.29-.267 72.565 0 9.07-.133 16.273-.133 21.342v7.737c0 3.469 1.333 6.803 3.735 9.204S322.101 612 325.57 612l115.383-.533c3.469 0 6.67-1.468 9.205-3.869 2.4-2.4 3.734-5.735 3.734-9.203 0 0-.666-70.966-1.334-147.531-.666-65.762-1.332-135.659-1.6-168.207 7.068-.133 15.473-.133 23.477-.133 9.471 0 18.541 0 25.479.133 3.334 0 6.27 0 8.137.133h3.068c3.469 0 6.803-1.333 9.338-3.735 2.533-2.401 3.867-5.735 3.867-9.204l.133-79.901c0-3.468-1.334-7.87-3.867-10.405-2.402-2.401-5.736-4.936-9.205-4.936h-4.268c-2.668 0-6.67 1.201-11.34 1.201-14.537 0-36.416.534-53.756.267.266-8.804 1.066-16.407 2.402-23.077 1.199-6.536 2.934-11.738 5.068-16.14 1.6-3.201 3.201-5.869 5.068-8.003 2.801-3.202 5.736-5.335 9.605-7.069 3.867-1.601 8.67-2.535 14.939-2.535 11.07 0 26.279 3.202 45.219 10.539.133 0 .268.133.4.133s.268.133.4.133c.268.133.533.133.801.133.4.133.934.267 1.332.267.4 0 .803 0 1.201.132h1.334c.4 0 .801-.132 1.201-.132s.801-.133 1.201-.267l1.199-.4c.4-.134.801-.267 1.201-.534.4-.133.668-.4 1.068-.534.398-.267.666-.4 1.066-.667.266-.268.666-.534.934-.801.266-.267.666-.534.934-.934.266-.267.533-.667.801-.934.266-.4.533-.667.666-1.067.268-.399.4-.8.533-1.2l.4-.8c0-.134.133-.268.133-.4 0-.133.135-.267.135-.4 2.668-8.67 7.068-23.076 10.938-38.417 1.867-7.603 3.734-15.473 5.068-23.076s2.268-14.806 2.268-21.609a98.029 98.029 0 0 0-.8-8.806z"/></svg>
