<svg xmlns="http://www.w3.org/2000/svg" width="150" height="26" viewBox="0 0 150 26"><g fill="#FFF"><path d="M13.899 14.047v2.542c0 3.538-1.872 5.307-5.616 5.307a7.698 7.698 0 0 1-2.08-.276 4.602 4.602 0 0 1-1.781-.909c-1.118-.818-1.686-2.295-1.703-4.43V7.526c0-1.116.161-2.035.481-2.755.303-.721.71-1.296 1.222-1.727a4.59 4.59 0 0 1 1.781-.91 9.346 9.346 0 0 1 2.08-.224c1.655-.018 3.003.316 4.043 1 1.031.72 1.556 2.093 1.573 4.12v2.106H9.578v-2.66c0-.415-.075-.776-.226-1.085-.197-.282-.554-.424-1.07-.424-.479 0-.797.142-.957.424-.188.309-.282.67-.282 1.085v10.853c0 .398.094.737.281 1.02.16.326.478.49.957.49.515 0 .872-.164 1.068-.49.15-.282.225-.621.225-1.02l.028-3.282h4.297zM15.248 5.191V2.292h10.396v2.899H22.6v16.323h-4.321V5.191h-3.031zM26.901 21.514V2.292h4.321v16.322h4.717v2.899h-9.038zM42.998 19.708h-.058a3.492 3.492 0 0 1-1.027 1.371c-.466.395-1.125.602-1.976.619-1.958-.018-2.956-1.068-2.99-3.154v-2.297c0-.527.092-.98.277-1.359.175-.378.399-.699.672-.963.307-.29.628-.545.962-.765.36-.211.729-.409 1.107-.594.377-.193.755-.383 1.134-.567.36-.158.676-.348.949-.567.615-.396.931-.937.949-1.624 0-.343-.063-.62-.187-.832-.134-.202-.398-.304-.791-.304-.374 0-.628.102-.762.305-.134.212-.202.49-.202.834v1.708h-4.11v-1.423c.017-1.546.55-2.645 1.599-3.295 1.014-.615 2.175-.923 3.483-.923 1.334 0 2.509.308 3.522.923.494.325.875.756 1.144 1.292.277.545.416 1.213.416 2.004v11.417h-4.113v-1.806zm-1.941-2.162c0 .273.096.471.288.594.153.141.34.211.561.211.489 0 .791-.158.906-.475.125-.325.187-.822.187-1.49v-2.677c-.451.273-.882.545-1.294.817-.431.299-.647.748-.647 1.346v1.674zM47.993 6.076h4.271l1.134 11.933h.053l1.345-11.933h4.733l1.424 11.933h.053l.949-11.933h3.757l-2.215 15.438h-5.221L56.879 9.212h-.053l-1.411 12.302h-5.049L47.993 6.076zM66.238 21.514V2.292h4.324v7.147h2.534V2.292h4.322v19.222h-4.322v-9.177h-2.534v9.177h-4.324zM82.915 14.276v3.147c0 .971.319 1.465.956 1.482.371 0 .624-.142.758-.424.143-.256.214-.608.214-1.059v-2.01l4.11.012v2.262c-.018 1.438-.484 2.464-1.402 3.078-.926.623-2.15.934-3.674.934-1.384 0-2.561-.33-3.53-.988-1.013-.65-1.527-1.688-1.545-3.111v-7.37c.018-2.865 1.71-4.315 5.075-4.351 1.402-.018 2.593.29 3.57.923.986.65 1.488 1.793 1.506 3.428v4.047h-6.038zm1.928-2.558v-2.12c0-.618-.323-.927-.972-.927-.637 0-.956.31-.956.927v2.12h1.928zM90.498 21.514V2.292h4.111v19.222h-4.111zM99.922 8.083h.057c.128-.805.46-1.378.996-1.72.545-.324 1.228-.486 2.045-.486.578 0 1.057.11 1.439.33.381.211.683.505.902.883.399.8.599 1.709.599 2.729v8.53c0 .976-.216 1.771-.646 2.386-.467.625-1.24.945-2.32.963-1.6-.018-2.606-.756-3.02-2.214h-.053v5.483h-4.113V6.076h4.113v2.007zm0 9.055c.02.703.338 1.055.957 1.055.628 0 .951-.352.971-1.055v-6.699c-.02-.677-.343-1.024-.971-1.042-.619.018-.938.365-.957 1.042v6.699zM107.888 21.514V16.98h4.058v4.534h-4.058zM123.719 17.608c-.018 1.42-.52 2.455-1.506 3.104-.979.658-2.168.986-3.57.986-1.385 0-2.562-.33-3.531-.988-1.012-.65-1.527-1.688-1.545-3.111v-7.37c.018-2.865 1.71-4.315 5.076-4.351 3.35.035 5.041 1.482 5.076 4.34v7.39zm-6.039.212c0 .291.076.538.229.74.134.229.377.345.729.345.371 0 .623-.115.757-.345.143-.202.214-.449.214-.74V9.756c0-.309-.071-.568-.214-.78-.134-.203-.386-.304-.757-.304-.352 0-.595.102-.729.304a1.304 1.304 0 0 0-.229.78v8.064zM129.176 8.083h.082c.299-.683.707-1.221 1.225-1.615.498-.394 1.146-.591 1.945-.591 1.026.018 1.756.316 2.188.897.399.589.599 1.302.599 2.137v5.501h-4.111v-3.749c0-.343-.062-.643-.186-.898-.133-.229-.395-.352-.785-.37-.371.018-.623.141-.756.369a1.902 1.902 0 0 0-.201.897v10.851h-4.113V6.076h4.113v2.007zM146.898 20.025c0 1.046-.178 1.902-.533 2.571-.355.666-.806 1.172-1.352 1.516a5.347 5.347 0 0 1-1.677.672 8.002 8.002 0 0 1-1.625.184c-1.611-.018-2.838-.359-3.679-1.027-.866-.643-1.3-1.389-1.3-2.241v-1.503h4.111v1.021c-.018.602.303.921.963.957.669-.036.995-.354.978-.955v-3.831h-.079c-.079.659-.352 1.2-.817 1.622-.466.43-1.06.646-1.78.646-1.222-.018-2.096-.396-2.623-1.136-.519-.704-.77-1.624-.752-2.76V9.437c.018-1.243.308-2.149.87-2.718.536-.56 1.173-.84 1.91-.84.844 0 1.521.18 2.03.541.5.378.887.927 1.159 1.648h.053V6.076h4.143v13.949zm-6.053-5.039c0 .291.066.556.201.793.134.247.388.37.762.37.393 0 .656-.123.79-.37.125-.237.188-.502.188-.793V10.56c0-.308-.063-.582-.188-.819-.134-.229-.397-.344-.79-.344-.374 0-.628.115-.762.343-.135.238-.201.51-.201.818v4.428z"/></g></svg>