<svg xmlns="http://www.w3.org/2000/svg" width="230.248" height="30.744" viewBox="0 0 230.248 30.744"><g fill="#FFF"><path d="M6.308 18.779L4.95 23.674H.48L6.308 4.606h5.658l5.913 19.067h-4.64l-1.471-4.895h-5.46zm4.837-3.224l-1.188-4.046c-.339-1.131-.679-2.546-.962-3.677h-.057c-.283 1.131-.566 2.574-.877 3.677L6.93 15.555h4.215zM22.626 9.84l2.065 6.79c.226.82.509 1.839.679 2.574h.085c.198-.735.424-1.782.622-2.574l1.698-6.79h4.611l-3.225 9.109c-1.98 5.488-3.31 7.695-4.866 9.081a7.926 7.926 0 0 1-4.158 1.896l-.905-3.649c.537-.085 1.216-.339 1.867-.735.651-.34 1.358-1.019 1.783-1.726.141-.198.226-.425.226-.622 0-.142-.028-.368-.198-.708L17.846 9.84h4.78zM47.235 19.232c0 1.811.057 3.281.113 4.441h-3.734l-.198-1.952h-.085c-.538.849-1.839 2.264-4.328 2.264-2.801 0-4.866-1.754-4.866-6.026V9.84h4.329v7.44c0 2.009.65 3.226 2.15 3.226 1.188 0 1.867-.821 2.15-1.5.113-.255.142-.594.142-.934V9.84h4.328v9.392zM64.092 3.588v15.956c0 1.556.056 3.196.113 4.13h-3.819l-.198-2.037h-.057c-.877 1.557-2.546 2.349-4.328 2.349-3.282 0-5.913-2.801-5.913-7.101-.028-4.668 2.886-7.355 6.195-7.355 1.697 0 3.027.594 3.649 1.556h.057V3.588h4.301zm-4.3 12.108c0-.227-.028-.538-.057-.764-.254-1.16-1.188-2.122-2.518-2.122-1.952 0-2.971 1.754-2.971 3.933 0 2.348 1.16 3.818 2.942 3.818 1.245 0 2.235-.849 2.489-2.064.085-.312.113-.623.113-.99v-1.811zM75.403 23.674l-.255-1.386h-.084c-.905 1.103-2.32 1.697-3.961 1.697-2.801 0-4.47-2.037-4.47-4.244 0-3.593 3.225-5.318 8.119-5.29v-.198c0-.735-.396-1.782-2.518-1.782-1.415 0-2.914.481-3.819 1.047l-.792-2.772c.962-.537 2.857-1.216 5.375-1.216 4.611 0 6.083 2.716 6.083 5.969v4.81c0 1.329.057 2.603.198 3.366h-3.876zm-.509-6.535c-2.263-.028-4.017.51-4.017 2.179 0 1.104.735 1.641 1.697 1.641 1.075 0 1.952-.707 2.235-1.584.057-.227.085-.481.085-.735v-1.501zM82.614 4.606h4.328v15.446h7.582v3.621h-11.91V4.606zM99.98 18.129c.142 1.782 1.896 2.631 3.904 2.631 1.471 0 2.659-.198 3.819-.565l.566 2.914c-1.415.565-3.141.849-5.007.849-4.696 0-7.384-2.716-7.384-7.045 0-3.508 2.178-7.383 6.988-7.383 4.47 0 6.167 3.479 6.167 6.902 0 .735-.085 1.386-.142 1.697H99.98zm5.064-2.942c0-1.046-.453-2.801-2.433-2.801-1.811 0-2.546 1.642-2.659 2.801h5.092zM124.815 9.84c-.057.877-.113 2.037-.113 4.103v7.723c0 2.659-.538 4.838-2.094 6.224-1.527 1.302-3.593 1.697-5.63 1.697-1.811 0-3.734-.367-4.979-1.074l.849-3.254c.877.51 2.405 1.047 4.018 1.047 2.036 0 3.592-1.104 3.592-3.649v-.907h-.057c-.82 1.16-2.15 1.811-3.734 1.811-3.422 0-5.855-2.772-5.855-6.761 0-4.442 2.886-7.271 6.28-7.271 1.896 0 3.083.82 3.791 1.951h.057l.142-1.641h3.733zm-4.414 5.63c0-.283-.027-.565-.084-.792-.312-1.132-1.133-1.896-2.32-1.896-1.557 0-2.829 1.414-2.829 3.933 0 2.064 1.019 3.678 2.829 3.678 1.104 0 1.98-.736 2.264-1.754.113-.312.141-.765.141-1.132V15.47zM136.014 23.674l-.255-1.386h-.084c-.906 1.103-2.32 1.697-3.961 1.697-2.801 0-4.471-2.037-4.471-4.244 0-3.593 3.226-5.318 8.119-5.29v-.198c0-.735-.396-1.782-2.518-1.782-1.414 0-2.914.481-3.818 1.047l-.793-2.772c.963-.537 2.857-1.216 5.375-1.216 4.611 0 6.083 2.716 6.083 5.969v4.81c0 1.329.057 2.603.198 3.366h-3.875zm-.509-6.535c-2.264-.028-4.018.51-4.018 2.179 0 1.104.735 1.641 1.697 1.641 1.075 0 1.952-.707 2.234-1.584.057-.227.086-.481.086-.735v-1.501zM143.082 3.588h4.3v20.086h-4.3V3.588zM165.005 23.137c-.792.396-2.574.82-4.895.82-6.592 0-9.986-4.103-9.986-9.534 0-6.507 4.641-10.128 10.411-10.128 2.235 0 3.933.453 4.696.849l-.877 3.424a9.308 9.308 0 0 0-3.621-.708c-3.424 0-6.082 2.065-6.082 6.309 0 3.819 2.263 6.225 6.109 6.225 1.302 0 2.744-.283 3.594-.623l.651 3.366zM171.903 8.228h-5.121V4.606h14.654v3.621h-5.205v15.446h-4.328V8.228zM180.924 21.383c0-1.528 1.047-2.632 2.546-2.632 1.5 0 2.518 1.075 2.518 2.632 0 1.499-1.018 2.603-2.546 2.603-1.471-.001-2.518-1.104-2.518-2.603zM202.253 16.602c0 5.063-3.594 7.384-7.299 7.384-4.046 0-7.158-2.659-7.158-7.129 0-4.471 2.942-7.327 7.385-7.327 4.242-.001 7.072 2.912 7.072 7.072zm-10.016.141c0 2.376.99 4.158 2.83 4.158 1.668 0 2.744-1.669 2.744-4.158 0-2.065-.793-4.159-2.744-4.159-2.066 0-2.83 2.122-2.83 4.159zM204.907 14.395c0-2.037-.057-3.366-.113-4.555h3.707l.141 2.546h.113c.707-2.008 2.404-2.856 3.734-2.856.396 0 .594 0 .905.057v4.045a6.136 6.136 0 0 0-1.159-.113c-1.584 0-2.66.849-2.943 2.179a5.112 5.112 0 0 0-.084.962v7.016h-4.301v-9.281zM228.64 9.84c-.057.877-.113 2.037-.113 4.103v7.723c0 2.659-.537 4.838-2.093 6.224-1.528 1.302-3.593 1.697-5.63 1.697-1.811 0-3.734-.367-4.979-1.074l.848-3.254c.877.51 2.405 1.047 4.018 1.047 2.037 0 3.594-1.104 3.594-3.649v-.907h-.057c-.82 1.16-2.15 1.811-3.734 1.811-3.424 0-5.856-2.772-5.856-6.761 0-4.442 2.886-7.271 6.28-7.271 1.896 0 3.084.82 3.791 1.951h.057l.141-1.641h3.733zm-4.412 5.63c0-.283-.029-.565-.086-.792-.311-1.132-1.131-1.896-2.319-1.896-1.556 0-2.829 1.414-2.829 3.933 0 2.064 1.019 3.678 2.829 3.678 1.104 0 1.98-.736 2.263-1.754.113-.312.143-.765.143-1.132V15.47z"/></g></svg>