<svg xmlns="http://www.w3.org/2000/svg" width="40" height="32.507" fill="#fff" viewBox="980 796.426 40 32.507"><path d="M1020 800.274a16.394 16.394 0 0 1-4.713 1.292 8.233 8.233 0 0 0 3.607-4.54 16.412 16.412 0 0 1-5.211 1.991 8.195 8.195 0 0 0-5.99-2.591 8.207 8.207 0 0 0-8.206 8.206c0 .644.072 1.27.212 1.871-6.82-.342-12.868-3.61-16.915-8.575a8.163 8.163 0 0 0-1.111 4.126 8.203 8.203 0 0 0 3.65 6.831 8.176 8.176 0 0 1-3.717-1.026l-.001.103a8.212 8.212 0 0 0 6.583 8.047 8.198 8.198 0 0 1-3.706.141 8.214 8.214 0 0 0 7.666 5.699 16.467 16.467 0 0 1-10.192 3.513c-.654 0-1.308-.038-1.958-.114a23.232 23.232 0 0 0 12.58 3.687c15.095 0 23.349-12.504 23.349-23.349 0-.355-.008-.709-.023-1.062a16.702 16.702 0 0 0 4.096-4.25"/></svg>
